/* XPM */
static char * greymandel_xpm[] = {
"32 32 236 2",
"  	c None",
". 	c #535353",
"+ 	c #2A2A2A",
"@ 	c #3B3B3B",
"# 	c #505050",
"$ 	c #444444",
"% 	c #313131",
"& 	c #272727",
"* 	c #232323",
"= 	c #212121",
"- 	c #414141",
"; 	c #585858",
"> 	c #A1A1A1",
", 	c #C9C9C9",
"' 	c #EBEBEB",
") 	c #757575",
"! 	c #8B8B8B",
"~ 	c #A2A2A2",
"{ 	c #6F6F6F",
"] 	c #6C6C6C",
"^ 	c #999999",
"/ 	c #303030",
"( 	c #393939",
"_ 	c #282828",
": 	c #252525",
"< 	c #616161",
"[ 	c #7F7F7F",
"} 	c #2B2B2B",
"| 	c #434343",
"1 	c #6A6A6A",
"2 	c #2E2E2E",
"3 	c #383838",
"4 	c #424242",
"5 	c #2D2D2D",
"6 	c #292929",
"7 	c #525252",
"8 	c #777777",
"9 	c #A8A8A8",
"0 	c #ECECEC",
"a 	c #8F8F8F",
"b 	c #8A8A8A",
"c 	c #EFEFEF",
"d 	c #B5B5B5",
"e 	c #989898",
"f 	c #707070",
"g 	c #838383",
"h 	c #B9B9B9",
"i 	c #5F5F5F",
"j 	c #4E4E4E",
"k 	c #515151",
"l 	c #979797",
"m 	c #4D4D4D",
"n 	c #2C2C2C",
"o 	c #4A4A4A",
"p 	c #1F1F1F",
"q 	c #8C8C8C",
"r 	c #555555",
"s 	c #6E6E6E",
"t 	c #878787",
"u 	c #A4A4A4",
"v 	c #E5E5E5",
"w 	c #BFBFBF",
"x 	c #E9E9E9",
"y 	c #AFAFAF",
"z 	c #9A9A9A",
"A 	c #C2C2C2",
"B 	c #868686",
"C 	c #6D6D6D",
"D 	c #909090",
"E 	c #848484",
"F 	c #3C3C3C",
"G 	c #1E1E1E",
"H 	c #3A3A3A",
"I 	c #222222",
"J 	c #929292",
"K 	c #595959",
"L 	c #343434",
"M 	c #606060",
"N 	c #B8B8B8",
"O 	c #7A7A7A",
"P 	c #888888",
"Q 	c #D3D3D3",
"R 	c #E7E7E7",
"S 	c #A6A6A6",
"T 	c #A0A0A0",
"U 	c #FFFFFF",
"V 	c #DBDBDB",
"W 	c #C1C1C1",
"X 	c #DDDDDD",
"Y 	c #A5A5A5",
"Z 	c #8E8E8E",
"` 	c #959595",
" .	c #C4C4C4",
"..	c #D1D1D1",
"+.	c #C3C3C3",
"@.	c #323232",
"#.	c #363636",
"$.	c #939393",
"%.	c #545454",
"&.	c #494949",
"*.	c #CBCBCB",
"=.	c #A3A3A3",
"-.	c #ABABAB",
";.	c #FBFBFB",
">.	c #5A5A5A",
",.	c #646464",
"'.	c #E4E4E4",
").	c #D9D9D9",
"!.	c #F8F8F8",
"~.	c #E8E8E8",
"{.	c #D2D2D2",
"].	c #C5C5C5",
"^.	c #DADADA",
"/.	c #A7A7A7",
"(.	c #626262",
"_.	c #3D3D3D",
":.	c #262626",
"<.	c #696969",
"[.	c #717171",
"}.	c #7D7D7D",
"|.	c #818181",
"1.	c #C7C7C7",
"2.	c #F5F5F5",
"3.	c #636363",
"4.	c #7B7B7B",
"5.	c #5E5E5E",
"6.	c #CDCDCD",
"7.	c #767676",
"8.	c #B4B4B4",
"9.	c #D4D4D4",
"0.	c #464646",
"a.	c #4B4B4B",
"b.	c #808080",
"c.	c #E1E1E1",
"d.	c #B6B6B6",
"e.	c #E0E0E0",
"f.	c #FEFEFE",
"g.	c #9B9B9B",
"h.	c #666666",
"i.	c #747474",
"j.	c #6B6B6B",
"k.	c #D7D7D7",
"l.	c #727272",
"m.	c #5B5B5B",
"n.	c #1D1D1D",
"o.	c #3F3F3F",
"p.	c #919191",
"q.	c #EEEEEE",
"r.	c #FDFDFD",
"s.	c #828282",
"t.	c #BDBDBD",
"u.	c #5C5C5C",
"v.	c #474747",
"w.	c #C0C0C0",
"x.	c #404040",
"y.	c #DFDFDF",
"z.	c #D8D8D8",
"A.	c #949494",
"B.	c #454545",
"C.	c #898989",
"D.	c #CACACA",
"E.	c #BBBBBB",
"F.	c #ACACAC",
"G.	c #CFCFCF",
"H.	c #BEBEBE",
"I.	c #9D9D9D",
"J.	c #0A0A0A",
"K.	c #000000",
"L.	c #ADADAD",
"M.	c #AAAAAA",
"N.	c #858585",
"O.	c #B1B1B1",
"P.	c #5D5D5D",
"Q.	c #181818",
"R.	c #EAEAEA",
"S.	c #B7B7B7",
"T.	c #D5D5D5",
"U.	c #E6E6E6",
"V.	c #E3E3E3",
"W.	c #9F9F9F",
"X.	c #565656",
"Y.	c #050505",
"Z.	c #D0D0D0",
"`.	c #BABABA",
" +	c #797979",
".+	c #9E9E9E",
"++	c #F0F0F0",
"@+	c #373737",
"#+	c #9C9C9C",
"$+	c #171717",
"%+	c #4C4C4C",
"&+	c #B2B2B2",
"*+	c #DCDCDC",
"=+	c #656565",
"-+	c #B0B0B0",
";+	c #737373",
">+	c #3E3E3E",
",+	c #DEDEDE",
"'+	c #8D8D8D",
")+	c #1C1C1C",
"!+	c #C6C6C6",
"~+	c #7E7E7E",
"{+	c #131313",
"]+	c #575757",
"^+	c #686868",
"/+	c #969696",
"(+	c #787878",
"_+	c #070707",
":+	c #F4F4F4",
"<+	c #141414",
"[+	c #A9A9A9",
"}+	c #FCFCFC",
"|+	c #D6D6D6",
"1+	c #7C7C7C",
"2+	c #F9F9F9",
"3+	c #F1F1F1",
"4+	c #C8C8C8",
"5+	c #080808",
"6+	c #030303",
"7+	c #151515",
"8+	c #AEAEAE",
"9+	c #111111",
"0+	c #F2F2F2",
"a+	c #EDEDED",
"b+	c #0D0D0D",
"c+	c #CECECE",
"d+	c #242424",
"e+	c #B3B3B3",
"f+	c #333333",
"g+	c #E2E2E2",
"h+	c #484848",
"i+	c #676767",
"j+	c #353535",
"k+	c #2F2F2F",
"l+	c #F6F6F6",
"m+	c #202020",
". + @ # # $ % & * = - ; > , ' ) ! ' ~ { ] . ^ { / ( _ : < [ } _ ",
"| 1 + 2 3 4 5 6 7 ( @ ; 8 9 0 a b c d e f g h i $ j ( k l m _ n ",
"+ 7 o : : 6 p 5 q [ r s t u v w i ' x y z A y 1 s B C D E F G : ",
"H I J K 6 I F L M N ! O P Q R S 1 T U V W X Y Z `  ...+.1 F 4 5 ",
"@.* #.$.%.#.# &.; b *.=.-.A ;.+.>.,.'.).!.~.{.].v x 8 ^./.(._.: ",
"4 :.I k u <.g [.}.|.+.X 1.'.2., r (.3.4.5.6.v U 6.7.8.9.P (.0.a.",
"% 6 / @ b., c.=.-.9 d.e.2.f.> g.L T q 8 h.i.^ d.<.j.k.).J l.m.) ",
"I n.o.i Y  .p.q.x Q R r.Z s.` | # t.B g -.u.v.v.1 p.U , z |.B w.",
"(.x.o.M p.y.b |.z.U , c.i [.6 . , e A.B.C.D.4.9 v.E.R ^.F.d G.J ",
"j.g.M { ^ X 1.,.< H.> B | t -.H.I.^ J.K.f [ L.M.%.] z.U y.c.d.N.",
"7 Y O.Z Y z.U s s v.P._.H z M.) e [ Q.K.| i ^ 3.S ( <.M.R.].I.s.",
"K f S.T.+.U.V.W.X.J %.S 6.].N.>.Y.K.K.K.K.K.K.j M.M.u.S U Z.`.l ",
" +4..+^.v ++e (.@+t.#+e s.i.W.$+K.K.K.K.K.K.K.6 ! A.%+&+W R D.*+",
"Z h W c h m.# r L.g.t ! =+-+(.K.K.K.K.K.K.K.K.K.;+H.>+|.,+U U X ",
"..x U k.'+j.s.w.$.#+] K.K.)+#.K.K.K.K.K.K.K.K.K.f E.@.s y &+G.9.",
"!+-.J ~+m.=.g.[ ^ # J.K.K.K.K.K.K.K.K.K.K.K.K.{+P e.C a.a.]+< s ",
"^+3.m.j s /+=+(+~+_+K.K.K.K.K.K.K.K.K.K.K.K.K.&.s.-.u }.M 3.j.u.",
"q.~.:+G.i ) N d.q I.4 K.K.K.<+K.K.K.K.K.K.K.K.K.B w @.0.P N.$.w.",
"[+k.T.R.&+(.@+4.+.` g 3 n.8 K K.K.K.K.K.K.K.K.K.(+H.H $.9.c }+|+",
"}.'+-.*+..L.Z B.%.O.B C.1+~ E K.K.K.K.K.K.K.K.K.(.[+| t `.2+'.R ",
"] [.9 *+c.3+d.J H t..+A ..'+C.< K.K.K.K.K.K.K.; S F.B.w.}+*+S.-+",
"&.g ].[+O.e.U P C 0.@.3.h.4+~ K h./ 5+K.6+7+o $ -+X.M t ;.w.8+! ",
"m.t.4.;+g.y.|+,.>.'+J ]+3 [ H.F.p.S 9+K.(+^ e W.b.; A 0+c.*+.+4.",
"s.u.o C C.k.h M L.a+8+w.k D 0.E A B . b+B Y , -+H > c+R w {...B ",
"6 d+L < e+).s e.~.c 0 !.l.]+,.o.p.E./+ +z e % < 5.S U D./.J S w ",
"_ _ - 0.b.W V  .c+N !+a+|+V [+^+f+F.` .+s.| |.E 3.l.,+g+` s C A.",
"o.* )+0.^ z [+g C.q S.V.'.3+*.W 0.E . h+%.[+ .3+T i+Q 4+|.i.j K ",
"@ * 2 8 ~+B.i >.h.s.{.E.e+Q U ].< K N h w ' ' V.a+4+s.g+8.P.3 @.",
"f+= s }.j+_ B.@+r 9 9 ! /+ .U.S < ! U R.'.c.&+S S.z.E.+.7.m o :.",
"@+f+8 f+= : : } ) 9 1 <.'+E.q., >.W q.t.9 G.-.) 4.9 $.d.^+( _ / ",
"@.) :.: k+#.& k+g k B.<.[.I.c.W.8 l+9.Y }.T O.< ]+m.&.3..+_.m+:.",
"k 3 ( | 0.0./ :.:.* #.. ~ G.0 }./+x > }.C ,.-+h.@+- 5 % [ <.& 6 "};
